P3
# Test pattern for Chromatic Adaptation Accelerator
4 4
255
0 255 0 85 170 0 170 85 0
255 0 0
255 0 0 0 255 0 255 255 0
0 255 255
0 0 0 85 85 85 170 170 170
255 255 255
0 0 0 85 85 85 170 170 170
255 255 255